<svg xmlns="http://www.w3.org/2000/svg" width="1400" height="378" viewBox="0 0 1400 378">
<rect width="100%" height="100%" fill="#ffffff"/>
<text x="28" y="34" font-size="28" font-weight="700" fill="#111111">Pipeline Depth Summary</text>
<text x="28" y="60" font-size="13" fill="#444444">matched_launches=4 unique_kernels=1</text>
<text x="28" y="78" font-size="13" fill="#444444">Stage and overlap estimate how deeply producer and consumer work is pipelined.</text>
<text x="28" y="126" font-size="18" font-weight="700" fill="#111111">Pipeline Metrics</text>
<text x="343.0" y="140" font-size="11" text-anchor="middle" fill="#333333">launches</text>
<text x="453.0" y="140" font-size="11" text-anchor="middle" fill="#333333">prod</text>
<text x="563.0" y="140" font-size="11" text-anchor="middle" fill="#333333">cons</text>
<text x="673.0" y="140" font-size="11" text-anchor="middle" fill="#333333">avg_gap</text>
<text x="783.0" y="140" font-size="11" text-anchor="middle" fill="#333333">max_gap</text>
<text x="893.0" y="140" font-size="11" text-anchor="middle" fill="#333333">burst</text>
<text x="1003.0" y="140" font-size="11" text-anchor="middle" fill="#333333">stage</text>
<text x="1113.0" y="140" font-size="11" text-anchor="middle" fill="#333333">overlap</text>
<text x="280" y="165" font-size="11" text-anchor="end" fill="#222222">fmha_cutlassF_f16_aligned_64x64_rf_sm80</text>
<rect x="288" y="146" width="108" height="26" fill="rgb(26,115,232)" rx="4" ry="4"/>
<text x="342.0" y="164" font-size="11" text-anchor="middle" fill="#ffffff">4</text>
<rect x="398" y="146" width="108" height="26" fill="rgb(26,115,232)" rx="4" ry="4"/>
<text x="452.0" y="164" font-size="11" text-anchor="middle" fill="#ffffff">125</text>
<rect x="508" y="146" width="108" height="26" fill="rgb(26,115,232)" rx="4" ry="4"/>
<text x="562.0" y="164" font-size="11" text-anchor="middle" fill="#ffffff">119</text>
<rect x="618" y="146" width="108" height="26" fill="rgb(26,115,232)" rx="4" ry="4"/>
<text x="672.0" y="164" font-size="11" text-anchor="middle" fill="#ffffff">40.26</text>
<rect x="728" y="146" width="108" height="26" fill="rgb(26,115,232)" rx="4" ry="4"/>
<text x="782.0" y="164" font-size="11" text-anchor="middle" fill="#ffffff">350</text>
<rect x="838" y="146" width="108" height="26" fill="rgb(26,115,232)" rx="4" ry="4"/>
<text x="892.0" y="164" font-size="11" text-anchor="middle" fill="#ffffff">5</text>
<rect x="948" y="146" width="108" height="26" fill="rgb(26,115,232)" rx="4" ry="4"/>
<text x="1002.0" y="164" font-size="11" text-anchor="middle" fill="#ffffff">3</text>
<rect x="1058" y="146" width="108" height="26" fill="rgb(26,115,232)" rx="4" ry="4"/>
<text x="1112.0" y="164" font-size="11" text-anchor="middle" fill="#ffffff">100</text>
<text x="28" y="252" font-size="18" font-weight="700" fill="#111111">Pipeline Label</text>
<text x="343.0" y="266" font-size="11" text-anchor="middle" fill="#333333">label</text>
<text x="280" y="291" font-size="11" text-anchor="end" fill="#222222">fmha_cutlassF_f16_aligned_64x64_rf_sm80</text>
<rect x="288" y="272" width="108" height="26" fill="rgb(26,115,232)" rx="4" ry="4"/>
<text x="342.0" y="290" font-size="11" text-anchor="middle" fill="#ffffff">deep</text>
</svg>
