<svg xmlns="http://www.w3.org/2000/svg" width="1400" height="378" viewBox="0 0 1400 378">
<rect width="100%" height="100%" fill="#ffffff"/>
<text x="28" y="34" font-size="28" font-weight="700" fill="#111111">Register Pressure Distortion Summary</text>
<text x="28" y="60" font-size="13" fill="#444444">matched_launches=4 unique_configs=1</text>
<text x="28" y="78" font-size="13" fill="#444444">Higher scores indicate stronger suspicion that register use and local traffic are distorting residency.</text>
<text x="28" y="126" font-size="18" font-weight="700" fill="#111111">Pressure Metrics</text>
<text x="343.0" y="140" font-size="11" text-anchor="middle" fill="#333333">launches</text>
<text x="453.0" y="140" font-size="11" text-anchor="middle" fill="#333333">regs</text>
<text x="563.0" y="140" font-size="11" text-anchor="middle" fill="#333333">occ</text>
<text x="673.0" y="140" font-size="11" text-anchor="middle" fill="#333333">local</text>
<text x="783.0" y="140" font-size="11" text-anchor="middle" fill="#333333">math</text>
<text x="893.0" y="140" font-size="11" text-anchor="middle" fill="#333333">score</text>
<text x="280" y="165" font-size="11" text-anchor="end" fill="#222222">fmha_cutlassF_f16_...4_rf_sm80 [32x4x1]</text>
<rect x="288" y="146" width="108" height="26" fill="rgb(26,115,232)" rx="4" ry="4"/>
<text x="342.0" y="164" font-size="11" text-anchor="middle" fill="#ffffff">4</text>
<rect x="398" y="146" width="108" height="26" fill="rgb(26,115,232)" rx="4" ry="4"/>
<text x="452.0" y="164" font-size="11" text-anchor="middle" fill="#ffffff">128</text>
<rect x="508" y="146" width="108" height="26" fill="rgb(26,115,232)" rx="4" ry="4"/>
<text x="562.0" y="164" font-size="11" text-anchor="middle" fill="#ffffff">4</text>
<rect x="618" y="146" width="108" height="26" fill="rgb(240,244,248)" rx="4" ry="4"/>
<text x="672.0" y="164" font-size="11" text-anchor="middle" fill="#111111">0</text>
<rect x="728" y="146" width="108" height="26" fill="rgb(26,115,232)" rx="4" ry="4"/>
<text x="782.0" y="164" font-size="11" text-anchor="middle" fill="#ffffff">934</text>
<rect x="838" y="146" width="108" height="26" fill="rgb(26,115,232)" rx="4" ry="4"/>
<text x="892.0" y="164" font-size="11" text-anchor="middle" fill="#ffffff">1.00</text>
<text x="28" y="252" font-size="18" font-weight="700" fill="#111111">Pressure Label</text>
<text x="343.0" y="266" font-size="11" text-anchor="middle" fill="#333333">label</text>
<text x="280" y="291" font-size="11" text-anchor="end" fill="#222222">fmha_cutlassF_f16_...4_rf_sm80 [32x4x1]</text>
<rect x="288" y="272" width="108" height="26" fill="rgb(26,115,232)" rx="4" ry="4"/>
<text x="342.0" y="290" font-size="11" text-anchor="middle" fill="#ffffff">low</text>
</svg>
