<svg xmlns="http://www.w3.org/2000/svg" width="1400" height="434" viewBox="0 0 1400 434">
<rect width="100%" height="100%" fill="#ffffff"/>
<text x="28" y="34" font-size="28" font-weight="700" fill="#111111">Reuse Distance Summary</text>
<text x="28" y="60" font-size="13" fill="#444444">matched_launches=10 unique_kernels=2 sample_every=64 line_shift=7</text>
<text x="28" y="78" font-size="13" fill="#444444">Higher hit% and lower avg_gap indicate tighter sampled memory-line reuse.</text>
<text x="28" y="126" font-size="18" font-weight="700" fill="#111111">Reuse Metrics</text>
<text x="343.0" y="140" font-size="11" text-anchor="middle" fill="#333333">launches</text>
<text x="453.0" y="140" font-size="11" text-anchor="middle" fill="#333333">sampled</text>
<text x="563.0" y="140" font-size="11" text-anchor="middle" fill="#333333">hit%</text>
<text x="673.0" y="140" font-size="11" text-anchor="middle" fill="#333333">avg_gap</text>
<text x="783.0" y="140" font-size="11" text-anchor="middle" fill="#333333">max_gap</text>
<text x="893.0" y="140" font-size="11" text-anchor="middle" fill="#333333">miss</text>
<text x="1003.0" y="140" font-size="11" text-anchor="middle" fill="#333333">hits</text>
<text x="280" y="165" font-size="11" text-anchor="end" fill="#222222">ampere_sgemm_128x128_tn</text>
<rect x="288" y="146" width="108" height="26" fill="rgb(26,115,232)" rx="4" ry="4"/>
<text x="342.0" y="164" font-size="11" text-anchor="middle" fill="#ffffff">5</text>
<rect x="398" y="146" width="108" height="26" fill="rgb(107,163,238)" rx="4" ry="4"/>
<text x="452.0" y="164" font-size="11" text-anchor="middle" fill="#ffffff">1975</text>
<rect x="508" y="146" width="108" height="26" fill="rgb(26,115,232)" rx="4" ry="4"/>
<text x="562.0" y="164" font-size="11" text-anchor="middle" fill="#ffffff">21.01</text>
<rect x="618" y="146" width="108" height="26" fill="rgb(150,189,241)" rx="4" ry="4"/>
<text x="672.0" y="164" font-size="11" text-anchor="middle" fill="#111111">2.35</text>
<rect x="728" y="146" width="108" height="26" fill="rgb(162,197,242)" rx="4" ry="4"/>
<text x="782.0" y="164" font-size="11" text-anchor="middle" fill="#111111">8</text>
<rect x="838" y="146" width="108" height="26" fill="rgb(122,173,239)" rx="4" ry="4"/>
<text x="892.0" y="164" font-size="11" text-anchor="middle" fill="#111111">1560</text>
<rect x="948" y="146" width="108" height="26" fill="rgb(26,115,232)" rx="4" ry="4"/>
<text x="1002.0" y="164" font-size="11" text-anchor="middle" fill="#ffffff">415</text>
<text x="280" y="193" font-size="11" text-anchor="end" fill="#222222">ampere_sgemm_128x128_nn</text>
<rect x="288" y="174" width="108" height="26" fill="rgb(26,115,232)" rx="4" ry="4"/>
<text x="342.0" y="192" font-size="11" text-anchor="middle" fill="#ffffff">5</text>
<rect x="398" y="174" width="108" height="26" fill="rgb(26,115,232)" rx="4" ry="4"/>
<text x="452.0" y="192" font-size="11" text-anchor="middle" fill="#ffffff">3180</text>
<rect x="508" y="174" width="108" height="26" fill="rgb(130,178,239)" rx="4" ry="4"/>
<text x="562.0" y="192" font-size="11" text-anchor="middle" fill="#111111">10.72</text>
<rect x="618" y="174" width="108" height="26" fill="rgb(26,115,232)" rx="4" ry="4"/>
<text x="672.0" y="192" font-size="11" text-anchor="middle" fill="#ffffff">5.59</text>
<rect x="728" y="174" width="108" height="26" fill="rgb(26,115,232)" rx="4" ry="4"/>
<text x="782.0" y="192" font-size="11" text-anchor="middle" fill="#ffffff">22</text>
<rect x="838" y="174" width="108" height="26" fill="rgb(26,115,232)" rx="4" ry="4"/>
<text x="892.0" y="192" font-size="11" text-anchor="middle" fill="#ffffff">2839</text>
<rect x="948" y="174" width="108" height="26" fill="rgb(64,138,234)" rx="4" ry="4"/>
<text x="1002.0" y="192" font-size="11" text-anchor="middle" fill="#ffffff">341</text>
<text x="28" y="280" font-size="18" font-weight="700" fill="#111111">Hit Buckets</text>
<text x="343.0" y="294" font-size="11" text-anchor="middle" fill="#333333">h1</text>
<text x="453.0" y="294" font-size="11" text-anchor="middle" fill="#333333">h4</text>
<text x="563.0" y="294" font-size="11" text-anchor="middle" fill="#333333">h16</text>
<text x="673.0" y="294" font-size="11" text-anchor="middle" fill="#333333">h64</text>
<text x="783.0" y="294" font-size="11" text-anchor="middle" fill="#333333">hfar</text>
<text x="280" y="319" font-size="11" text-anchor="end" fill="#222222">ampere_sgemm_128x128_tn</text>
<rect x="288" y="300" width="108" height="26" fill="rgb(26,115,232)" rx="4" ry="4"/>
<text x="342.0" y="318" font-size="11" text-anchor="middle" fill="#ffffff">280</text>
<rect x="398" y="300" width="108" height="26" fill="rgb(26,115,232)" rx="4" ry="4"/>
<text x="452.0" y="318" font-size="11" text-anchor="middle" fill="#ffffff">69</text>
<rect x="508" y="300" width="108" height="26" fill="rgb(143,185,240)" rx="4" ry="4"/>
<text x="562.0" y="318" font-size="11" text-anchor="middle" fill="#111111">66</text>
<rect x="618" y="300" width="108" height="26" fill="rgb(240,244,248)" rx="4" ry="4"/>
<text x="672.0" y="318" font-size="11" text-anchor="middle" fill="#111111">0</text>
<rect x="728" y="300" width="108" height="26" fill="rgb(240,244,248)" rx="4" ry="4"/>
<text x="782.0" y="318" font-size="11" text-anchor="middle" fill="#111111">0</text>
<text x="280" y="347" font-size="11" text-anchor="end" fill="#222222">ampere_sgemm_128x128_nn</text>
<rect x="288" y="328" width="108" height="26" fill="rgb(161,196,242)" rx="4" ry="4"/>
<text x="342.0" y="346" font-size="11" text-anchor="middle" fill="#111111">103</text>
<rect x="398" y="328" width="108" height="26" fill="rgb(78,146,235)" rx="4" ry="4"/>
<text x="452.0" y="346" font-size="11" text-anchor="middle" fill="#ffffff">52</text>
<rect x="508" y="328" width="108" height="26" fill="rgb(26,115,232)" rx="4" ry="4"/>
<text x="562.0" y="346" font-size="11" text-anchor="middle" fill="#ffffff">146</text>
<rect x="618" y="328" width="108" height="26" fill="rgb(26,115,232)" rx="4" ry="4"/>
<text x="672.0" y="346" font-size="11" text-anchor="middle" fill="#ffffff">40</text>
<rect x="728" y="328" width="108" height="26" fill="rgb(240,244,248)" rx="4" ry="4"/>
<text x="782.0" y="346" font-size="11" text-anchor="middle" fill="#111111">0</text>
</svg>
