<svg xmlns="http://www.w3.org/2000/svg" width="1400" height="252" viewBox="0 0 1400 252">
<rect width="100%" height="100%" fill="#ffffff"/>
<text x="28" y="34" font-size="28" font-weight="700" fill="#111111">Tail Fragment Summary</text>
<text x="28" y="60" font-size="13" fill="#444444">matched_launches=4 threshold=16 unique_kernels=1</text>
<text x="28" y="78" font-size="13" fill="#444444">Higher partial/low/dead/waste percentages point to stronger tail and edge inefficiency.</text>
<text x="28" y="126" font-size="18" font-weight="700" fill="#111111">Tail Metrics</text>
<text x="341.0" y="140" font-size="11" text-anchor="middle" fill="#333333">launches</text>
<text x="447.0" y="140" font-size="11" text-anchor="middle" fill="#333333">sites</text>
<text x="553.0" y="140" font-size="11" text-anchor="middle" fill="#333333">partial%</text>
<text x="659.0" y="140" font-size="11" text-anchor="middle" fill="#333333">low%</text>
<text x="765.0" y="140" font-size="11" text-anchor="middle" fill="#333333">dead%</text>
<text x="871.0" y="140" font-size="11" text-anchor="middle" fill="#333333">waste%</text>
<text x="977.0" y="140" font-size="11" text-anchor="middle" fill="#333333">avg_active</text>
<text x="1083.0" y="140" font-size="11" text-anchor="middle" fill="#333333">math_p%</text>
<text x="1189.0" y="140" font-size="11" text-anchor="middle" fill="#333333">mem_p%</text>
<text x="1295.0" y="140" font-size="11" text-anchor="middle" fill="#333333">br_p%</text>
<text x="280" y="165" font-size="11" text-anchor="end" fill="#222222">fmha_cutlassF_f16_aligned_64x64_rf_sm80</text>
<rect x="288" y="146" width="104" height="26" fill="rgb(26,115,232)" rx="4" ry="4"/>
<text x="340.0" y="164" font-size="11" text-anchor="middle" fill="#ffffff">4</text>
<rect x="394" y="146" width="104" height="26" fill="rgb(26,115,232)" rx="4" ry="4"/>
<text x="446.0" y="164" font-size="11" text-anchor="middle" fill="#ffffff">191676</text>
<rect x="500" y="146" width="104" height="26" fill="rgb(26,115,232)" rx="4" ry="4"/>
<text x="552.0" y="164" font-size="11" text-anchor="middle" fill="#ffffff">0.94</text>
<rect x="606" y="146" width="104" height="26" fill="rgb(26,115,232)" rx="4" ry="4"/>
<text x="658.0" y="164" font-size="11" text-anchor="middle" fill="#ffffff">12.55</text>
<rect x="712" y="146" width="104" height="26" fill="rgb(26,115,232)" rx="4" ry="4"/>
<text x="764.0" y="164" font-size="11" text-anchor="middle" fill="#ffffff">11.19</text>
<rect x="818" y="146" width="104" height="26" fill="rgb(26,115,232)" rx="4" ry="4"/>
<text x="870.0" y="164" font-size="11" text-anchor="middle" fill="#ffffff">11.73</text>
<rect x="924" y="146" width="104" height="26" fill="rgb(26,115,232)" rx="4" ry="4"/>
<text x="976.0" y="164" font-size="11" text-anchor="middle" fill="#ffffff">27.74</text>
<rect x="1030" y="146" width="104" height="26" fill="rgb(240,244,248)" rx="4" ry="4"/>
<text x="1082.0" y="164" font-size="11" text-anchor="middle" fill="#111111">0.00</text>
<rect x="1136" y="146" width="104" height="26" fill="rgb(26,115,232)" rx="4" ry="4"/>
<text x="1188.0" y="164" font-size="11" text-anchor="middle" fill="#ffffff">3.14</text>
<rect x="1242" y="146" width="104" height="26" fill="rgb(26,115,232)" rx="4" ry="4"/>
<text x="1294.0" y="164" font-size="11" text-anchor="middle" fill="#ffffff">10.49</text>
</svg>
